<mxfile host="Electron" modified="2023-10-26T13:16:07.500Z" agent="Mozilla/5.0 (Windows NT 10.0; Win64; x64) AppleWebKit/537.36 (KHTML, like Gecko) draw.io/21.7.5 Chrome/114.0.5735.289 Electron/25.8.1 Safari/537.36" etag="xVpvqc2Fla9aFfE7J4jA" version="21.7.5" type="device" pages="2">
  <diagram name="第 1 页" id="CW3fBCcu56YsddP7jTjr">
    <mxGraphModel dx="780" dy="496" grid="0" gridSize="10" guides="1" tooltips="1" connect="1" arrows="1" fold="1" page="1" pageScale="1" pageWidth="1169" pageHeight="1654" math="0" shadow="0">
      <root>
        <mxCell id="0" />
        <mxCell id="1" parent="0" />
        <mxCell id="-21K05oUFc7jqBuEbFBT-30" value="" style="rounded=0;whiteSpace=wrap;html=1;fillColor=none;" parent="1" vertex="1">
          <mxGeometry x="590" y="61" width="330" height="160" as="geometry" />
        </mxCell>
        <mxCell id="-21K05oUFc7jqBuEbFBT-1" value="select &lt;br&gt;&amp;nbsp; &amp;nbsp; (id, name) &lt;br&gt;from &lt;br&gt;&lt;div style=&quot;&quot;&gt;&lt;span style=&quot;background-color: initial;&quot;&gt;&amp;nbsp; &amp;nbsp; user&amp;nbsp;&lt;/span&gt;&lt;/div&gt;&lt;div style=&quot;&quot;&gt;&lt;span style=&quot;background-color: initial;&quot;&gt;where&lt;/span&gt;&lt;/div&gt;&lt;div style=&quot;&quot;&gt;&lt;span style=&quot;background-color: initial;&quot;&gt;&amp;nbsp; &amp;nbsp; age&amp;gt;18&lt;/span&gt;&lt;/div&gt;&lt;div style=&quot;&quot;&gt;&lt;span style=&quot;background-color: initial;&quot;&gt;and&amp;nbsp;&lt;/span&gt;&lt;/div&gt;&lt;div style=&quot;&quot;&gt;&lt;span style=&quot;background-color: initial;&quot;&gt;&amp;nbsp; &amp;nbsp; username=&quot;user1&quot;&lt;/span&gt;&lt;/div&gt;" style="rounded=0;whiteSpace=wrap;html=1;align=left;" parent="1" vertex="1">
          <mxGeometry x="90" y="78" width="130" height="120" as="geometry" />
        </mxCell>
        <mxCell id="-21K05oUFc7jqBuEbFBT-2" value="[select, fields (, id, name, ), from, table, (, user, ), where,&lt;br&gt;&lt;div style=&quot;&quot;&gt;&lt;span style=&quot;background-color: initial;&quot;&gt;(, and, (, age&amp;gt;18, username=&quot;user1&quot;, ), )]&lt;/span&gt;&lt;/div&gt;" style="rounded=0;whiteSpace=wrap;html=1;align=left;" parent="1" vertex="1">
          <mxGeometry x="290" y="108" width="230" height="60" as="geometry" />
        </mxCell>
        <mxCell id="-21K05oUFc7jqBuEbFBT-3" value="SQL" style="text;html=1;align=center;verticalAlign=middle;resizable=0;points=[];autosize=1;strokeColor=none;fillColor=none;fontSize=14;" parent="1" vertex="1">
          <mxGeometry x="130" y="48" width="50" height="30" as="geometry" />
        </mxCell>
        <mxCell id="-21K05oUFc7jqBuEbFBT-4" value="Tokens" style="text;html=1;align=center;verticalAlign=middle;resizable=0;points=[];autosize=1;strokeColor=none;fillColor=none;fontSize=14;" parent="1" vertex="1">
          <mxGeometry x="370" y="78" width="70" height="30" as="geometry" />
        </mxCell>
        <mxCell id="-21K05oUFc7jqBuEbFBT-5" value="root" style="text;html=1;align=center;verticalAlign=middle;resizable=0;points=[];autosize=1;strokeColor=none;fillColor=none;" parent="1" vertex="1">
          <mxGeometry x="651" y="61" width="40" height="30" as="geometry" />
        </mxCell>
        <mxCell id="-21K05oUFc7jqBuEbFBT-7" value="select" style="text;html=1;align=center;verticalAlign=middle;resizable=0;points=[];autosize=1;strokeColor=none;fillColor=none;" parent="1" vertex="1">
          <mxGeometry x="590" y="101" width="50" height="30" as="geometry" />
        </mxCell>
        <mxCell id="-21K05oUFc7jqBuEbFBT-8" value="fields" style="text;html=1;align=center;verticalAlign=middle;resizable=0;points=[];autosize=1;strokeColor=none;fillColor=none;" parent="1" vertex="1">
          <mxGeometry x="645" y="101" width="50" height="30" as="geometry" />
        </mxCell>
        <mxCell id="-21K05oUFc7jqBuEbFBT-9" value="id" style="text;html=1;align=center;verticalAlign=middle;resizable=0;points=[];autosize=1;strokeColor=none;fillColor=none;" parent="1" vertex="1">
          <mxGeometry x="625" y="149" width="30" height="30" as="geometry" />
        </mxCell>
        <mxCell id="-21K05oUFc7jqBuEbFBT-10" value="name" style="text;html=1;align=center;verticalAlign=middle;resizable=0;points=[];autosize=1;strokeColor=none;fillColor=none;" parent="1" vertex="1">
          <mxGeometry x="674" y="149" width="50" height="30" as="geometry" />
        </mxCell>
        <mxCell id="-21K05oUFc7jqBuEbFBT-11" value="from" style="text;html=1;align=center;verticalAlign=middle;resizable=0;points=[];autosize=1;strokeColor=none;fillColor=none;" parent="1" vertex="1">
          <mxGeometry x="695" y="101" width="50" height="30" as="geometry" />
        </mxCell>
        <mxCell id="-21K05oUFc7jqBuEbFBT-12" value="table" style="text;html=1;align=center;verticalAlign=middle;resizable=0;points=[];autosize=1;strokeColor=none;fillColor=none;" parent="1" vertex="1">
          <mxGeometry x="745" y="101" width="50" height="30" as="geometry" />
        </mxCell>
        <mxCell id="-21K05oUFc7jqBuEbFBT-13" value="user" style="text;html=1;align=center;verticalAlign=middle;resizable=0;points=[];autosize=1;strokeColor=none;fillColor=none;" parent="1" vertex="1">
          <mxGeometry x="745" y="149" width="50" height="30" as="geometry" />
        </mxCell>
        <mxCell id="-21K05oUFc7jqBuEbFBT-14" value="where" style="text;html=1;align=center;verticalAlign=middle;resizable=0;points=[];autosize=1;strokeColor=none;fillColor=none;" parent="1" vertex="1">
          <mxGeometry x="795" y="101" width="60" height="30" as="geometry" />
        </mxCell>
        <mxCell id="-21K05oUFc7jqBuEbFBT-15" value="and" style="text;html=1;align=center;verticalAlign=middle;resizable=0;points=[];autosize=1;strokeColor=none;fillColor=none;" parent="1" vertex="1">
          <mxGeometry x="805" y="149" width="40" height="30" as="geometry" />
        </mxCell>
        <mxCell id="-21K05oUFc7jqBuEbFBT-16" value="age&amp;gt;18" style="text;html=1;align=center;verticalAlign=middle;resizable=0;points=[];autosize=1;strokeColor=none;fillColor=none;" parent="1" vertex="1">
          <mxGeometry x="750" y="191" width="60" height="30" as="geometry" />
        </mxCell>
        <mxCell id="-21K05oUFc7jqBuEbFBT-17" value="username=&quot;user1&quot;" style="text;html=1;align=center;verticalAlign=middle;resizable=0;points=[];autosize=1;strokeColor=none;fillColor=none;" parent="1" vertex="1">
          <mxGeometry x="805" y="191" width="120" height="30" as="geometry" />
        </mxCell>
        <mxCell id="-21K05oUFc7jqBuEbFBT-18" value="" style="endArrow=none;html=1;rounded=0;" parent="1" source="-21K05oUFc7jqBuEbFBT-7" target="-21K05oUFc7jqBuEbFBT-5" edge="1">
          <mxGeometry width="50" height="50" relative="1" as="geometry">
            <mxPoint x="630" y="111" as="sourcePoint" />
            <mxPoint x="670" y="71" as="targetPoint" />
          </mxGeometry>
        </mxCell>
        <mxCell id="-21K05oUFc7jqBuEbFBT-19" value="" style="endArrow=none;html=1;rounded=0;entryX=0.466;entryY=0.979;entryDx=0;entryDy=0;entryPerimeter=0;" parent="1" source="-21K05oUFc7jqBuEbFBT-8" target="-21K05oUFc7jqBuEbFBT-5" edge="1">
          <mxGeometry width="50" height="50" relative="1" as="geometry">
            <mxPoint x="646" y="111" as="sourcePoint" />
            <mxPoint x="660" y="101" as="targetPoint" />
          </mxGeometry>
        </mxCell>
        <mxCell id="-21K05oUFc7jqBuEbFBT-20" value="" style="endArrow=none;html=1;rounded=0;" parent="1" source="-21K05oUFc7jqBuEbFBT-11" target="-21K05oUFc7jqBuEbFBT-5" edge="1">
          <mxGeometry width="50" height="50" relative="1" as="geometry">
            <mxPoint x="679" y="111" as="sourcePoint" />
            <mxPoint x="679" y="100" as="targetPoint" />
          </mxGeometry>
        </mxCell>
        <mxCell id="-21K05oUFc7jqBuEbFBT-22" value="" style="endArrow=none;html=1;rounded=0;" parent="1" source="-21K05oUFc7jqBuEbFBT-12" target="-21K05oUFc7jqBuEbFBT-5" edge="1">
          <mxGeometry width="50" height="50" relative="1" as="geometry">
            <mxPoint x="711" y="111" as="sourcePoint" />
            <mxPoint x="699" y="101" as="targetPoint" />
          </mxGeometry>
        </mxCell>
        <mxCell id="-21K05oUFc7jqBuEbFBT-23" value="" style="endArrow=none;html=1;rounded=0;exitX=0.156;exitY=0.064;exitDx=0;exitDy=0;exitPerimeter=0;entryX=1.015;entryY=0.548;entryDx=0;entryDy=0;entryPerimeter=0;" parent="1" source="-21K05oUFc7jqBuEbFBT-14" target="-21K05oUFc7jqBuEbFBT-5" edge="1">
          <mxGeometry width="50" height="50" relative="1" as="geometry">
            <mxPoint x="755" y="116" as="sourcePoint" />
            <mxPoint x="700" y="94" as="targetPoint" />
          </mxGeometry>
        </mxCell>
        <mxCell id="-21K05oUFc7jqBuEbFBT-24" value="" style="endArrow=none;html=1;rounded=0;" parent="1" source="-21K05oUFc7jqBuEbFBT-9" target="-21K05oUFc7jqBuEbFBT-8" edge="1">
          <mxGeometry width="50" height="50" relative="1" as="geometry">
            <mxPoint x="814" y="113" as="sourcePoint" />
            <mxPoint x="701" y="87" as="targetPoint" />
          </mxGeometry>
        </mxCell>
        <mxCell id="-21K05oUFc7jqBuEbFBT-25" value="" style="endArrow=none;html=1;rounded=0;" parent="1" source="-21K05oUFc7jqBuEbFBT-10" target="-21K05oUFc7jqBuEbFBT-8" edge="1">
          <mxGeometry width="50" height="50" relative="1" as="geometry">
            <mxPoint x="659" y="159" as="sourcePoint" />
            <mxPoint x="671" y="141" as="targetPoint" />
          </mxGeometry>
        </mxCell>
        <mxCell id="-21K05oUFc7jqBuEbFBT-26" value="" style="endArrow=none;html=1;rounded=0;" parent="1" source="-21K05oUFc7jqBuEbFBT-13" target="-21K05oUFc7jqBuEbFBT-12" edge="1">
          <mxGeometry width="50" height="50" relative="1" as="geometry">
            <mxPoint x="694" y="159" as="sourcePoint" />
            <mxPoint x="686" y="141" as="targetPoint" />
          </mxGeometry>
        </mxCell>
        <mxCell id="-21K05oUFc7jqBuEbFBT-27" value="" style="endArrow=none;html=1;rounded=0;" parent="1" source="-21K05oUFc7jqBuEbFBT-15" target="-21K05oUFc7jqBuEbFBT-14" edge="1">
          <mxGeometry width="50" height="50" relative="1" as="geometry">
            <mxPoint x="780" y="159" as="sourcePoint" />
            <mxPoint x="780" y="141" as="targetPoint" />
          </mxGeometry>
        </mxCell>
        <mxCell id="-21K05oUFc7jqBuEbFBT-28" value="" style="endArrow=none;html=1;rounded=0;" parent="1" source="-21K05oUFc7jqBuEbFBT-16" target="-21K05oUFc7jqBuEbFBT-15" edge="1">
          <mxGeometry width="50" height="50" relative="1" as="geometry">
            <mxPoint x="835" y="159" as="sourcePoint" />
            <mxPoint x="835" y="141" as="targetPoint" />
          </mxGeometry>
        </mxCell>
        <mxCell id="-21K05oUFc7jqBuEbFBT-29" value="" style="endArrow=none;html=1;rounded=0;" parent="1" source="-21K05oUFc7jqBuEbFBT-17" target="-21K05oUFc7jqBuEbFBT-15" edge="1">
          <mxGeometry width="50" height="50" relative="1" as="geometry">
            <mxPoint x="806" y="201" as="sourcePoint" />
            <mxPoint x="819" y="189" as="targetPoint" />
          </mxGeometry>
        </mxCell>
        <mxCell id="-21K05oUFc7jqBuEbFBT-31" value="语法树" style="text;html=1;align=center;verticalAlign=middle;resizable=0;points=[];autosize=1;strokeColor=none;fillColor=none;fontSize=14;" parent="1" vertex="1">
          <mxGeometry x="725" y="31" width="70" height="30" as="geometry" />
        </mxCell>
        <mxCell id="-21K05oUFc7jqBuEbFBT-32" value="" style="shape=flexArrow;endArrow=classic;html=1;rounded=0;" parent="1" edge="1">
          <mxGeometry width="50" height="50" relative="1" as="geometry">
            <mxPoint x="230" y="138" as="sourcePoint" />
            <mxPoint x="280" y="138" as="targetPoint" />
          </mxGeometry>
        </mxCell>
        <mxCell id="-21K05oUFc7jqBuEbFBT-33" value="" style="shape=flexArrow;endArrow=classic;html=1;rounded=0;" parent="1" edge="1">
          <mxGeometry width="50" height="50" relative="1" as="geometry">
            <mxPoint x="530" y="137.5" as="sourcePoint" />
            <mxPoint x="580" y="137.5" as="targetPoint" />
          </mxGeometry>
        </mxCell>
        <mxCell id="-21K05oUFc7jqBuEbFBT-34" value="词法分析" style="text;html=1;align=center;verticalAlign=middle;resizable=0;points=[];autosize=1;strokeColor=none;fillColor=none;" parent="1" vertex="1">
          <mxGeometry x="215" y="86" width="70" height="30" as="geometry" />
        </mxCell>
        <mxCell id="-21K05oUFc7jqBuEbFBT-35" value="语法分析" style="text;html=1;align=center;verticalAlign=middle;resizable=0;points=[];autosize=1;strokeColor=none;fillColor=none;" parent="1" vertex="1">
          <mxGeometry x="520" y="86" width="70" height="30" as="geometry" />
        </mxCell>
      </root>
    </mxGraphModel>
  </diagram>
  <diagram id="udETVBQfPSD2-vEtbX75" name="第 2 页">
    <mxGraphModel dx="624" dy="397" grid="0" gridSize="10" guides="1" tooltips="1" connect="1" arrows="1" fold="1" page="1" pageScale="1" pageWidth="1169" pageHeight="1654" math="0" shadow="0">
      <root>
        <mxCell id="0" />
        <mxCell id="1" parent="0" />
        <mxCell id="NB77-87Pr3wiG3kabKG7-1" value="HTTP接口" style="rounded=0;whiteSpace=wrap;html=1;" vertex="1" parent="1">
          <mxGeometry x="360" y="200" width="230" height="30" as="geometry" />
        </mxCell>
        <mxCell id="NB77-87Pr3wiG3kabKG7-6" style="edgeStyle=orthogonalEdgeStyle;rounded=0;orthogonalLoop=1;jettySize=auto;html=1;exitX=0.5;exitY=0;exitDx=0;exitDy=0;entryX=0.5;entryY=1;entryDx=0;entryDy=0;startArrow=classic;startFill=1;" edge="1" parent="1" source="NB77-87Pr3wiG3kabKG7-2" target="NB77-87Pr3wiG3kabKG7-1">
          <mxGeometry relative="1" as="geometry" />
        </mxCell>
        <mxCell id="NB77-87Pr3wiG3kabKG7-7" value="sql命令" style="edgeLabel;html=1;align=center;verticalAlign=middle;resizable=0;points=[];" vertex="1" connectable="0" parent="NB77-87Pr3wiG3kabKG7-6">
          <mxGeometry x="0.0374" y="1" relative="1" as="geometry">
            <mxPoint as="offset" />
          </mxGeometry>
        </mxCell>
        <mxCell id="NB77-87Pr3wiG3kabKG7-9" style="edgeStyle=orthogonalEdgeStyle;rounded=0;orthogonalLoop=1;jettySize=auto;html=1;exitX=0.5;exitY=1;exitDx=0;exitDy=0;entryX=0.5;entryY=0;entryDx=0;entryDy=0;startArrow=classic;startFill=1;" edge="1" parent="1" source="NB77-87Pr3wiG3kabKG7-2" target="NB77-87Pr3wiG3kabKG7-8">
          <mxGeometry relative="1" as="geometry" />
        </mxCell>
        <mxCell id="NB77-87Pr3wiG3kabKG7-10" value="语法树" style="edgeLabel;html=1;align=center;verticalAlign=middle;resizable=0;points=[];" vertex="1" connectable="0" parent="NB77-87Pr3wiG3kabKG7-9">
          <mxGeometry x="-0.1641" y="2" relative="1" as="geometry">
            <mxPoint x="-2" y="3" as="offset" />
          </mxGeometry>
        </mxCell>
        <mxCell id="NB77-87Pr3wiG3kabKG7-2" value="" style="rounded=0;whiteSpace=wrap;html=1;" vertex="1" parent="1">
          <mxGeometry x="360" y="260" width="230" height="90" as="geometry" />
        </mxCell>
        <mxCell id="NB77-87Pr3wiG3kabKG7-18" style="edgeStyle=orthogonalEdgeStyle;rounded=0;orthogonalLoop=1;jettySize=auto;html=1;exitX=0.25;exitY=1;exitDx=0;exitDy=0;entryX=0.5;entryY=0;entryDx=0;entryDy=0;" edge="1" parent="1" source="NB77-87Pr3wiG3kabKG7-3" target="NB77-87Pr3wiG3kabKG7-4">
          <mxGeometry relative="1" as="geometry" />
        </mxCell>
        <mxCell id="NB77-87Pr3wiG3kabKG7-19" style="edgeStyle=orthogonalEdgeStyle;rounded=0;orthogonalLoop=1;jettySize=auto;html=1;exitX=0.75;exitY=1;exitDx=0;exitDy=0;entryX=0.5;entryY=0;entryDx=0;entryDy=0;" edge="1" parent="1" source="NB77-87Pr3wiG3kabKG7-3" target="NB77-87Pr3wiG3kabKG7-5">
          <mxGeometry relative="1" as="geometry" />
        </mxCell>
        <mxCell id="NB77-87Pr3wiG3kabKG7-3" value="token分词器" style="rounded=0;whiteSpace=wrap;html=1;" vertex="1" parent="1">
          <mxGeometry x="370" y="270" width="210" height="30" as="geometry" />
        </mxCell>
        <mxCell id="NB77-87Pr3wiG3kabKG7-4" value="主子句解析器" style="rounded=0;whiteSpace=wrap;html=1;" vertex="1" parent="1">
          <mxGeometry x="370" y="310" width="100" height="30" as="geometry" />
        </mxCell>
        <mxCell id="NB77-87Pr3wiG3kabKG7-5" value="where子句解析器" style="rounded=0;whiteSpace=wrap;html=1;" vertex="1" parent="1">
          <mxGeometry x="480" y="310" width="100" height="30" as="geometry" />
        </mxCell>
        <mxCell id="NB77-87Pr3wiG3kabKG7-21" style="edgeStyle=orthogonalEdgeStyle;rounded=0;orthogonalLoop=1;jettySize=auto;html=1;exitX=0.5;exitY=1;exitDx=0;exitDy=0;entryX=0.5;entryY=0;entryDx=0;entryDy=0;startArrow=classic;startFill=1;" edge="1" parent="1" source="NB77-87Pr3wiG3kabKG7-8" target="NB77-87Pr3wiG3kabKG7-20">
          <mxGeometry relative="1" as="geometry" />
        </mxCell>
        <mxCell id="NB77-87Pr3wiG3kabKG7-22" value="pandas提供的文件交互函数" style="edgeLabel;html=1;align=center;verticalAlign=middle;resizable=0;points=[];" vertex="1" connectable="0" parent="NB77-87Pr3wiG3kabKG7-21">
          <mxGeometry x="0.0072" y="2" relative="1" as="geometry">
            <mxPoint as="offset" />
          </mxGeometry>
        </mxCell>
        <mxCell id="NB77-87Pr3wiG3kabKG7-8" value="" style="rounded=0;whiteSpace=wrap;html=1;" vertex="1" parent="1">
          <mxGeometry x="360" y="380" width="230" height="130" as="geometry" />
        </mxCell>
        <mxCell id="NB77-87Pr3wiG3kabKG7-11" value="创建命令执行器" style="rounded=0;whiteSpace=wrap;html=1;" vertex="1" parent="1">
          <mxGeometry x="370" y="390" width="100" height="30" as="geometry" />
        </mxCell>
        <mxCell id="NB77-87Pr3wiG3kabKG7-12" value="插入命令执行器" style="rounded=0;whiteSpace=wrap;html=1;" vertex="1" parent="1">
          <mxGeometry x="480" y="390" width="100" height="30" as="geometry" />
        </mxCell>
        <mxCell id="NB77-87Pr3wiG3kabKG7-17" style="edgeStyle=orthogonalEdgeStyle;rounded=0;orthogonalLoop=1;jettySize=auto;html=1;exitX=0.5;exitY=1;exitDx=0;exitDy=0;entryX=0.25;entryY=0;entryDx=0;entryDy=0;" edge="1" parent="1" source="NB77-87Pr3wiG3kabKG7-13" target="NB77-87Pr3wiG3kabKG7-15">
          <mxGeometry relative="1" as="geometry" />
        </mxCell>
        <mxCell id="NB77-87Pr3wiG3kabKG7-13" value="查询命令执行器" style="rounded=0;whiteSpace=wrap;html=1;" vertex="1" parent="1">
          <mxGeometry x="370" y="430" width="100" height="30" as="geometry" />
        </mxCell>
        <mxCell id="NB77-87Pr3wiG3kabKG7-16" style="edgeStyle=orthogonalEdgeStyle;rounded=0;orthogonalLoop=1;jettySize=auto;html=1;exitX=0.5;exitY=1;exitDx=0;exitDy=0;entryX=0.75;entryY=0;entryDx=0;entryDy=0;" edge="1" parent="1" source="NB77-87Pr3wiG3kabKG7-14" target="NB77-87Pr3wiG3kabKG7-15">
          <mxGeometry relative="1" as="geometry" />
        </mxCell>
        <mxCell id="NB77-87Pr3wiG3kabKG7-14" value="删除命令执行器" style="rounded=0;whiteSpace=wrap;html=1;" vertex="1" parent="1">
          <mxGeometry x="480" y="430" width="100" height="30" as="geometry" />
        </mxCell>
        <mxCell id="NB77-87Pr3wiG3kabKG7-15" value="where条件筛选器" style="rounded=0;whiteSpace=wrap;html=1;" vertex="1" parent="1">
          <mxGeometry x="370" y="470" width="210" height="30" as="geometry" />
        </mxCell>
        <mxCell id="NB77-87Pr3wiG3kabKG7-20" value="文件系统" style="rounded=0;whiteSpace=wrap;html=1;" vertex="1" parent="1">
          <mxGeometry x="360" y="540" width="230" height="30" as="geometry" />
        </mxCell>
        <mxCell id="NB77-87Pr3wiG3kabKG7-23" value="用户层" style="text;html=1;align=center;verticalAlign=middle;resizable=0;points=[];autosize=1;strokeColor=none;fillColor=none;fontSize=16;" vertex="1" parent="1">
          <mxGeometry x="590" y="200" width="70" height="30" as="geometry" />
        </mxCell>
        <mxCell id="NB77-87Pr3wiG3kabKG7-24" value="解析层" style="text;html=1;align=center;verticalAlign=middle;resizable=0;points=[];autosize=1;strokeColor=none;fillColor=none;fontSize=16;" vertex="1" parent="1">
          <mxGeometry x="590" y="290" width="70" height="30" as="geometry" />
        </mxCell>
        <mxCell id="NB77-87Pr3wiG3kabKG7-25" value="执行层" style="text;html=1;align=center;verticalAlign=middle;resizable=0;points=[];autosize=1;strokeColor=none;fillColor=none;fontSize=16;" vertex="1" parent="1">
          <mxGeometry x="590" y="430" width="70" height="30" as="geometry" />
        </mxCell>
        <mxCell id="NB77-87Pr3wiG3kabKG7-26" value="持久层" style="text;html=1;align=center;verticalAlign=middle;resizable=0;points=[];autosize=1;strokeColor=none;fillColor=none;fontSize=16;" vertex="1" parent="1">
          <mxGeometry x="590" y="540" width="70" height="30" as="geometry" />
        </mxCell>
      </root>
    </mxGraphModel>
  </diagram>
</mxfile>
